<?xml version="1.0" encoding="UTF-8"?>
<svg version="1.1" xmlns="http://www.w3.org/2000/svg" width="592" height="600">
<path d="M0 0 C0.8204417 -0.00345082 1.64088341 -0.00690165 2.48618698 -0.01045704 C5.21474959 -0.01914105 7.94306496 -0.01324517 10.67163086 -0.00683594 C12.62513814 -0.00899795 14.57864479 -0.01181632 16.53215027 -0.01524353 C21.80440321 -0.02097596 27.07653399 -0.01221423 32.34877014 0.00104141 C35.63546822 0.00878669 38.92215749 0.01336847 42.2088623 0.0171814 C73.15679333 0.05883935 104.09774819 0.34809409 135.03873825 1.01283264 C137.80963292 1.07098806 140.58058418 1.12447364 143.35159302 1.17687988 C147.70758458 1.26056617 152.06299626 1.35912917 156.41839027 1.46954155 C157.99555933 1.50782987 159.57283679 1.54195163 161.15019798 1.57127571 C176.76670565 1.8708732 192.90849277 3.37466434 204.91772461 14.47753906 C214.28558801 24.55241102 218.9686788 36.58885673 218.78491211 50.29785156 C218.29204133 57.21629691 216.28197073 63.25988182 212.91772461 69.30175781 C212.38518066 70.25937012 211.85263672 71.21698242 211.30395508 72.20361328 C208.29900643 77.51040517 205.25836655 82.79571874 202.19897461 88.07128906 C196.96141584 97.11748756 191.76026123 106.18278748 186.57397461 115.25878906 C207.69397461 115.25878906 228.81397461 115.25878906 250.57397461 115.25878906 C250.57397461 116.57878906 250.57397461 117.89878906 250.57397461 119.25878906 C251.22881836 119.33355469 251.88366211 119.40832031 252.55834961 119.48535156 C264.97563819 121.27428297 274.6253106 126.51221295 282.57397461 136.25878906 C291.03051714 147.7196296 293.22607506 160.23029394 291.12866211 174.23144531 C288.13754314 186.18017848 280.76008589 196.76165301 274.57397461 207.25878906 C273.43869075 209.2034194 272.30455995 211.1487234 271.17163086 213.09472656 C269.4585702 216.03576387 267.74412053 218.97592881 266.02441406 221.91308594 C261.42600279 229.76962977 256.89558867 237.66332254 252.38647461 245.57128906 C245.05673552 258.42298018 237.67514999 271.24263715 230.21069336 284.01660156 C229.01923462 286.05563339 227.8278292 288.09469638 226.63647461 290.13378906 C226.04205566 291.15118164 225.44763672 292.16857422 224.83520508 293.21679688 C220.54707273 300.56620853 216.31409045 307.94549038 212.10449219 315.34008789 C208.38761914 321.85944773 204.6147523 328.34466888 200.82397461 334.82128906 C195.68534146 343.60264216 190.61085093 352.41885033 185.57397461 361.25878906 C180.06134908 370.93360859 174.48972887 380.57161056 168.86303711 390.18066406 C164.38231315 397.84452676 159.96890709 405.54557742 155.57397461 413.25878906 C150.06133626 422.93360125 144.48972894 432.57161043 138.86303711 442.18066406 C134.38231315 449.84452676 129.96890709 457.54557742 125.57397461 465.25878906 C120.06133626 474.93360125 114.48972894 484.57161043 108.86303711 494.18066406 C104.03647601 502.43604911 99.29009468 510.73593447 94.55648804 519.04476929 C89.3158668 528.2413434 84.0051076 537.39487673 78.65429688 546.52783203 C74.70818239 553.27733553 70.8425767 560.06845401 67.01147461 566.88378906 C64.8706239 570.67829182 62.72424315 574.4696157 60.57397461 578.25878906 C59.98600098 579.29600098 59.39802734 580.33321289 58.79223633 581.40185547 C57.02378475 584.50746377 55.23892203 587.60303068 53.44897461 590.69628906 C52.90426514 591.65680176 52.35955566 592.61731445 51.79833984 593.60693359 C51.28859619 594.48075684 50.77885254 595.35458008 50.25366211 596.25488281 C49.80748535 597.03017334 49.36130859 597.80546387 48.90161133 598.60424805 C48.46349121 599.15024658 48.02537109 599.69624512 47.57397461 600.25878906 C46.58397461 600.25878906 45.59397461 600.25878906 44.57397461 600.25878906 C43.32226562 598.72436523 43.32226562 598.72436523 42.07788086 596.55175781 C41.60833984 595.74786621 41.13879883 594.94397461 40.6550293 594.11572266 C40.15390625 593.23480957 39.6527832 592.35389648 39.13647461 591.44628906 C38.0511907 589.58707318 36.96390359 587.72902537 35.87475586 585.87207031 C35.32255371 584.9267041 34.77035156 583.98133789 34.20141602 583.00732422 C31.8258689 578.99533661 29.33402949 575.06253346 26.82397461 571.13378906 C22.06535102 563.65595199 17.39728797 556.12584479 12.76147461 548.57128906 C7.50497221 540.00729631 2.21877476 531.4633015 -3.11352539 522.94628906 C-3.72607178 521.96611816 -4.33861816 520.98594727 -4.96972656 519.97607422 C-7.99495132 515.13619755 -11.02923864 510.30239271 -14.07836914 505.47753906 C-15.23608832 503.63389398 -16.39364752 501.79014842 -17.55102539 499.94628906 C-18.33159302 498.72075317 -18.33159302 498.72075317 -19.12792969 497.47045898 C-33.12779006 475.08944957 -37.35874097 450.21096028 -31.94311523 424.49609375 C-28.30494439 408.7547351 -19.48320907 395.06176499 -11.42602539 381.25878906 C-10.97179199 380.47890625 -10.51755859 379.69902344 -10.04956055 378.89550781 C-8.08020025 375.52169709 -6.0952923 372.15745178 -4.10180664 368.79785156 C-0.74457074 363.12550294 2.53558086 357.40872024 5.82397461 351.69628906 C10.71542785 343.20222607 15.62784762 334.72113336 20.57397461 326.25878906 C27.32116954 314.7116018 34.00736859 303.12976738 40.68286133 291.54101562 C43.81077609 286.11218964 46.94255909 280.68559625 50.07397461 275.25878906 C51.3239934 273.09213324 52.57399339 270.92546657 53.82397461 268.75878906 C56.32397461 264.42545573 58.82397461 260.0921224 61.32397461 255.75878906 C61.94280518 254.68612793 62.56163574 253.6134668 63.19921875 252.50830078 C64.44832979 250.34321836 65.6975159 248.17817924 66.94677734 246.01318359 C70.0859977 240.572632 73.22388024 235.13131691 76.35913086 229.68847656 C82.96653817 218.22107545 89.59869537 206.76900385 96.27832031 195.34350586 C99.43934388 189.93224689 102.58619243 184.51316855 105.71459961 179.08300781 C106.05898071 178.48529572 106.40336182 177.88758362 106.75817871 177.27175903 C108.43289093 174.36413257 110.10586135 171.45552425 111.77709961 168.54589844 C112.37522461 167.50626953 112.97334961 166.46664062 113.58959961 165.39550781 C114.1184375 164.47471436 114.64727539 163.5539209 115.19213867 162.60522461 C116.26222272 160.7881614 117.40425425 159.0133696 118.57397461 157.25878906 C112.40334646 157.18393541 106.23298989 157.12985802 100.06201172 157.09399414 C97.96821481 157.0790235 95.87444861 157.05863973 93.78076172 157.0324707 C71.64419736 156.69615579 71.64419736 156.69615579 51.57397461 165.25878906 C50.70772461 165.81566406 49.84147461 166.37253906 48.94897461 166.94628906 C42.62080251 173.10793031 38.22670379 181.28826321 33.82397461 188.88378906 C32.69558739 190.81117636 31.56664552 192.738239 30.43725586 194.66503906 C29.52000732 196.23318359 29.52000732 196.23318359 28.58422852 197.83300781 C24.75146603 204.36462345 20.8794536 210.87298881 17.01147461 217.38378906 C16.17911315 218.78564175 15.34675637 220.18749721 14.5144043 221.58935547 C9.77013617 229.57723185 5.00700441 237.55333813 0.21704102 245.51391602 C-5.39172606 254.84602812 -10.93864542 264.21500271 -16.49047852 273.58105469 C-20.29278201 279.99378711 -24.10519324 286.40001378 -27.94555664 292.79003906 C-30.93453334 297.76353589 -33.90775394 302.74595309 -36.86352539 307.73925781 C-37.23226776 308.36213684 -37.60101013 308.98501587 -37.98092651 309.62677002 C-38.73861035 310.90676066 -39.49628025 312.18675955 -40.25393677 313.46676636 C-47.62616353 325.91760837 -55.06473411 338.325113 -62.61206055 350.6706543 C-65.66641417 355.67528602 -68.6959048 360.68576233 -71.60180664 365.77832031 C-72.06643311 366.58986572 -72.53105957 367.40141113 -73.00976562 368.23754883 C-73.84106446 369.69974831 -74.66298386 371.16734088 -75.47314453 372.64135742 C-76.54321289 374.52441406 -76.54321289 374.52441406 -78.42602539 377.25878906 C-79.41602539 377.25878906 -80.40602539 377.25878906 -81.42602539 377.25878906 C-81.95067383 376.28425781 -82.47532227 375.30972656 -83.01586914 374.30566406 C-88.58370852 364.07591788 -94.50803645 354.0898984 -100.58395386 344.15515137 C-106.13224337 335.08010735 -111.57193126 325.94967163 -116.92602539 316.75878906 C-122.53453861 307.13343109 -128.24127432 297.57650034 -134.05102539 288.07128906 C-140.23087447 277.95903367 -146.22910321 267.75371905 -152.12280273 257.47143555 C-156.20488089 250.35517526 -160.36408875 243.29340481 -164.6027832 236.26953125 C-169.26772159 228.53740351 -173.8811409 220.77529198 -178.48852539 213.00878906 C-179.30720618 211.62906658 -180.12589111 210.24934654 -180.94458008 208.86962891 C-182.60930602 206.06390596 -184.27381796 203.25805617 -185.93823242 200.45214844 C-189.53881942 194.38256239 -193.14226373 188.31467311 -196.74557495 182.2467041 C-198.72251661 178.91747322 -200.69926071 175.58812503 -202.67602539 172.25878906 C-203.46769112 170.92545517 -204.25935778 169.59212184 -205.05102539 168.25878906 C-206.63435872 165.5921224 -208.21769206 162.92545573 -209.80102539 160.25878906 C-210.19289032 159.5988092 -210.58475525 158.93882935 -210.98849487 158.2588501 C-211.78027455 156.92532001 -212.57204294 155.59178323 -213.36380005 154.25823975 C-215.34114531 150.92786173 -217.31868558 147.59759982 -219.29663086 144.26757812 C-222.88105719 138.23248516 -226.46399587 132.19653262 -230.03974915 126.15629578 C-232.04255082 122.77322625 -234.04651827 119.39084833 -236.05102539 116.00878906 C-236.44379669 115.34599945 -236.83656799 114.68320984 -237.24124146 114.00033569 C-243.23352294 103.89396432 -249.31385712 93.84413456 -255.43521118 83.81555176 C-260.49407751 75.5207788 -265.40114616 67.1561954 -270.18603516 58.70092773 C-273.48294702 52.88228256 -276.85669981 47.11640199 -280.30102539 41.38378906 C-280.7825708 40.58062256 -281.26411621 39.77745605 -281.76025391 38.94995117 C-284.56239873 34.29536166 -287.41085452 29.67275096 -290.29321289 25.06738281 C-290.93919434 24.02759277 -291.58517578 22.98780273 -292.25073242 21.91650391 C-293.51042407 19.89134912 -294.77929275 17.87186673 -296.05834961 15.85888672 C-296.91323975 14.48095947 -296.91323975 14.48095947 -297.78540039 13.07519531 C-298.55062012 11.86005249 -298.55062012 11.86005249 -299.33129883 10.62036133 C-300.56944985 7.94939014 -300.51054947 6.16486042 -300.42602539 3.25878906 C-281.11026926 3.18851997 -261.79453928 3.13571355 -242.47868156 3.10335255 C-233.50877468 3.08792336 -224.5389475 3.0669099 -215.5690918 3.0324707 C-207.74546315 3.00244685 -199.92189226 2.98318541 -192.09820759 2.97652358 C-187.96061046 2.97263318 -183.82317849 2.96357387 -179.68563461 2.94159889 C-175.7802789 2.92102784 -171.87515421 2.91499624 -167.96974945 2.91946602 C-166.54689141 2.91864993 -165.12402453 2.91280823 -163.70121384 2.90117264 C-144.57204873 2.75259188 -127.47065653 6.70767351 -113.42602539 20.25878906 C-107.90760122 26.0070098 -103.57094606 32.3018366 -99.30102539 39.00878906 C-97.99503984 41.03613541 -96.68905017 43.0634791 -95.38305664 45.09082031 C-94.72901855 46.11127441 -94.07498047 47.13172852 -93.40112305 48.18310547 C-90.28538992 53.03502215 -87.13552501 57.86462083 -83.98852539 62.69628906 C-82.90623924 64.36148801 -81.82418216 66.02683586 -80.74243164 67.69238281 C-80.06869507 68.72963501 -80.06869507 68.72963501 -79.38134766 69.7878418 C-79.06609131 70.27325439 -78.75083496 70.75866699 -78.42602539 71.25878906 C-74.05965788 65.15702108 -69.87155419 58.94960463 -65.73852539 52.68847656 C-65.22878174 51.91755676 -64.71903809 51.14663696 -64.19384766 50.35235596 C-62.06699169 47.13507768 -59.94073523 43.9174591 -57.82348633 40.69384766 C-56.25892271 38.31342791 -54.68683539 35.93812169 -53.11352539 33.56347656 C-52.4132019 32.49128372 -52.4132019 32.49128372 -51.69873047 31.39743042 C-40.25203177 14.18226702 -21.42002027 -0.11483256 0 0 Z " fill="#D1D105" transform="translate(300.426025390625,-0.2587890625)"/>
<path d="M0 0 C1.81614304 0.00021904 1.81614304 0.00021904 3.66897583 0.0004425 C7.01394311 0.00657594 10.35770631 0.03159717 13.70243073 0.06626511 C16.54785135 0.09279326 19.39326785 0.10449297 22.23877907 0.11695004 C60.15900583 0.29340453 98.09035775 1.18528628 135.99399185 2.28462219 C140.85567869 2.4212752 145.71371805 2.49902353 150.57714844 2.53955078 C152.75716347 2.57703181 154.93717668 2.61461857 157.1171875 2.65234375 C158.05990509 2.6456517 159.00262268 2.63895966 159.97390747 2.63206482 C165.90264291 2.77389168 165.90264291 2.77389168 168.50576782 4.73954773 C170.82629251 7.35434718 171.78600972 9.09418408 172.0390625 12.59765625 C170.69634509 18.29719571 167.16520908 23.31453465 164.1875 28.2734375 C163.16730322 30.00592607 162.14712397 31.73842527 161.12802124 33.47155762 C160.06861612 35.27004892 159.00439089 37.06562005 157.93945312 38.86083984 C154.55632778 44.57406094 151.25088872 50.33206956 147.9375 56.0859375 C147.06617432 57.59184448 147.06617432 57.59184448 146.17724609 59.12817383 C145.31993896 60.61160278 145.31993896 60.61160278 144.4453125 62.125 C143.82938232 63.1157251 143.21345215 64.1064502 142.57885742 65.12719727 C141.13431113 67.85356624 140.39041891 69.83121436 139.6340332 72.74584961 C138.08357758 77.75204574 136.39329964 81.62155695 131.8125 84.4609375 C121.01597517 87.16815998 109.32302836 86.20572033 98.28710938 85.8482666 C92.46096892 85.67643134 86.63224709 85.63228527 80.80409241 85.5723114 C77.7091344 85.54004921 74.61801862 85.47442453 71.5243988 85.37898254 C57.12626825 85.01063596 43.8986061 87.05219932 30.8125 93.4609375 C29.64847656 94.01394531 29.64847656 94.01394531 28.4609375 94.578125 C14.80487276 101.57504863 4.45262943 112.8109329 -3 126.0234375 C-4.11495021 127.9536655 -5.23090077 129.8833159 -6.34765625 131.8125 C-6.9523877 132.8634082 -7.55711914 133.91431641 -8.18017578 134.99707031 C-11.62953377 140.96933174 -15.17107386 146.88769025 -18.69784546 152.81442261 C-19.89989596 154.83522038 -21.10027193 156.85700209 -22.30004883 158.87915039 C-26.08287725 165.25308002 -29.87794501 171.61934681 -33.6953125 177.97265625 C-37.86505113 184.91257187 -42.00028066 191.87259854 -46.12802124 198.83755493 C-52.3489663 209.33316582 -58.5879384 219.81726607 -64.875 230.2734375 C-70.30015649 239.29783422 -75.69255654 248.34111778 -81.0625 257.3984375 C-81.4160556 257.99427643 -81.76961121 258.59011536 -82.13388062 259.20401001 C-83.12910667 260.88163176 -84.12317488 262.55994023 -85.1171875 264.23828125 C-85.68679199 265.19984131 -86.25639648 266.16140137 -86.84326172 267.15209961 C-87.66595371 268.5651396 -88.4562676 269.9984727 -89.1875 271.4609375 C-89.8475 271.4609375 -90.5075 271.4609375 -91.1875 271.4609375 C-91.73277344 270.47996094 -92.27804688 269.49898438 -92.83984375 268.48828125 C-93.60143931 267.12493118 -94.36316538 265.761654 -95.125 264.3984375 C-95.47884766 263.76099609 -95.83269531 263.12355469 -96.19726562 262.46679688 C-99.60886625 256.37257013 -103.20948059 250.39433786 -106.81176758 244.41186523 C-109.07273344 240.656143 -111.31716869 236.89082276 -113.5546875 233.12109375 C-113.91722122 232.51035507 -114.27975494 231.89961639 -114.65327454 231.27037048 C-115.78994704 229.35488267 -116.92622386 227.43916046 -118.0625 225.5234375 C-118.88733141 224.13344077 -119.71220217 222.74346738 -120.53710938 221.35351562 C-122.24201243 218.48072076 -123.94675038 215.60782801 -125.65136719 212.73486328 C-129.26956886 206.63703674 -132.88985322 200.54044699 -136.5100708 194.44381714 C-138.48597441 191.11624633 -140.46172935 187.78858726 -142.4375 184.4609375 C-143.22916596 183.12760375 -144.02083263 181.79427041 -144.8125 180.4609375 C-187.5625 108.4609375 -187.5625 108.4609375 -188.74996948 106.46098328 C-189.54173129 105.12749345 -190.33349969 103.79400753 -191.12527466 102.46052551 C-193.10303957 99.12961855 -195.08069051 95.79864402 -197.05810547 92.4675293 C-200.63715352 86.43858974 -204.21704721 80.41016035 -207.80116272 74.38423157 C-209.80550142 71.01429947 -211.80915368 67.64395962 -213.8125 64.2734375 C-214.20394196 63.61491791 -214.59538391 62.95639832 -214.99868774 62.27792358 C-219.31297137 55.01776789 -223.61275448 47.74949682 -227.87890625 40.4609375 C-228.25988464 39.81009689 -228.64086304 39.15925629 -229.03338623 38.48869324 C-230.82720483 35.42282203 -232.61871733 32.35563284 -234.40673828 29.28637695 C-238.36331472 22.51053693 -238.36331472 22.51053693 -242.45166016 15.81396484 C-243.00917717 14.91970039 -243.00917717 14.91970039 -243.57795715 14.00737 C-244.61810511 12.34602758 -245.66493886 10.68887652 -246.7121582 9.03198242 C-248.1875 6.4609375 -248.1875 6.4609375 -248.1875 4.4609375 C-236.68700444 4.39139395 -225.18655901 4.338104 -213.68589592 4.30550098 C-208.34553469 4.28985232 -203.00531744 4.26862845 -197.66503906 4.23461914 C-192.51033235 4.20199747 -187.35576405 4.18407847 -182.20096207 4.17630577 C-180.23539171 4.17076733 -178.26982883 4.15995209 -176.30431747 4.14374733 C-173.54890385 4.12193587 -170.79406044 4.11897214 -168.03857422 4.12036133 C-166.82260811 4.10418259 -166.82260811 4.10418259 -165.58207703 4.087677 C-158.43646011 4.12659943 -153.4509547 6.58009669 -148.1875 11.4609375 C-146.46889191 13.77906414 -144.88464239 16.06340336 -143.3359375 18.48828125 C-142.88418152 19.18059845 -142.43242554 19.87291565 -141.96697998 20.58621216 C-140.49100096 22.85197937 -139.02681468 25.12511821 -137.5625 27.3984375 C-136.53191846 28.98483392 -135.5004956 30.57068408 -134.46826172 32.15600586 C-132.37138646 35.3784863 -130.27870373 38.60362598 -128.18945312 41.83105469 C-124.30843383 47.82277662 -120.39080944 53.79029335 -116.47189331 59.75726318 C-114.55821167 62.67249078 -112.64816724 65.59009733 -110.73828125 68.5078125 C-110.36727798 69.07454681 -109.99627472 69.64128113 -109.61402893 70.22518921 C-102.80067505 80.63415449 -95.99329488 91.04702876 -89.1875 101.4609375 C-86.12570891 97.74850495 -83.3857305 93.8862775 -80.7421875 89.87109375 C-80.31348358 89.22398941 -79.88477966 88.57688507 -79.44308472 87.91017151 C-78.02162929 85.76234466 -76.60417296 83.61192144 -75.1875 81.4609375 C-74.69511841 80.71414734 -74.20273682 79.96735718 -73.69543457 79.19793701 C-71.03462186 75.16160861 -68.37700888 71.12318963 -65.72167969 67.08325195 C-61.6071238 60.82352126 -57.4823476 54.57053482 -53.35852051 48.31690979 C-50.10788758 43.38463893 -46.86805868 38.44561171 -43.6421814 33.49711609 C-41.83346549 30.72582737 -40.01656252 27.95997542 -38.19769287 25.19534302 C-37.36822248 23.93032735 -36.54247213 22.66286332 -35.72076416 21.39279175 C-26.28494219 6.81542761 -17.88773267 -0.22925117 0 0 Z " fill="#020000" transform="translate(311.1875,35.5390625)"/>
<path d="M0 0 C4.48398784 -0.09903473 8.96739292 -0.17154483 13.45214844 -0.21972656 C14.97700085 -0.23981599 16.50177648 -0.26709316 18.02636719 -0.30175781 C20.22089598 -0.35039796 22.41440469 -0.37299396 24.609375 -0.390625 C25.92905273 -0.41157227 27.24873047 -0.43251953 28.60839844 -0.45410156 C32 0 32 0 34.39916992 1.82104492 C36.71790374 4.97716804 37.00407932 7.08793194 37 11 C36.00594223 13.87080271 34.51522785 16.35035612 32.9375 18.9375 C32.48777832 19.70980957 32.03805664 20.48211914 31.57470703 21.27783203 C30.5880821 22.96752303 29.59290025 24.65223938 28.59033203 26.33251953 C26.96786825 29.05389492 25.36963707 31.78821727 23.77734375 34.52734375 C21.44984437 38.53026329 19.11397942 42.5281315 16.7734375 46.5234375 C12.80099739 53.32174125 8.89723483 60.15846658 5 67 C-0.53951839 76.72143706 -6.13375194 86.40895317 -11.78344727 96.06689453 C-17.93766742 106.59084625 -24.02369996 117.15380137 -30.10888672 127.71777344 C-33.23680148 133.14659942 -36.36858448 138.57319281 -39.5 144 C-40.75001879 146.16665583 -42.00001878 148.3333225 -43.25 150.5 C-125.75 293.5 -125.75 293.5 -127.62475586 296.74951172 C-128.8756448 298.91776264 -130.12645852 301.08605697 -131.37719727 303.25439453 C-134.48798335 308.64717915 -137.60004238 314.03922093 -140.71484375 319.4296875 C-149.32442321 334.33361796 -157.88197276 349.26654531 -166.41162109 364.21630859 C-168.27295968 367.47837171 -170.1361195 370.7393888 -172 374 C-175.49567951 372.8347735 -175.72462934 372.26557276 -177.49609375 369.1953125 C-178.20088867 367.99358398 -178.20088867 367.99358398 -178.91992188 366.76757812 C-179.42072266 365.89552734 -179.92152344 365.02347656 -180.4375 364.125 C-181.5175612 362.2826978 -182.59964284 360.44157881 -183.68359375 358.6015625 C-184.23515137 357.66344727 -184.78670898 356.72533203 -185.35498047 355.75878906 C-187.8225699 351.62050462 -190.4058161 347.55967926 -193 343.5 C-197.2629637 336.79502142 -201.45244993 330.04989969 -205.5625 323.25 C-206.06330078 322.42822266 -206.56410156 321.60644531 -207.08007812 320.75976562 C-215.01999958 307.54834626 -218.32508362 293.83678932 -215.3125 278.5 C-211.81704682 266.38242898 -205.3542333 255.74218977 -198.953125 244.98828125 C-195.51961438 239.21042234 -192.16642566 233.38680652 -188.8125 227.5625 C-187.85645874 225.90323486 -187.85645874 225.90323486 -186.88110352 224.21044922 C-185.57237584 221.93876335 -184.26386516 219.66695245 -182.95556641 217.39501953 C-179.80667946 211.9283002 -176.65316736 206.46425113 -173.5 201 C-172.2499765 198.83334689 -170.99997653 196.66668021 -169.75 194.5 C-117.25 103.5 -117.25 103.5 -115.37524414 100.25048828 C-114.1243552 98.08223736 -112.87354148 95.91394303 -111.62280273 93.74560547 C-108.51201665 88.35282085 -105.39995762 82.96077907 -102.28515625 77.5703125 C-96.48839873 67.53538476 -90.70401466 57.49388745 -84.96337891 47.42675781 C-82.30648067 42.76747841 -79.64328605 38.11181321 -76.97851562 33.45703125 C-75.64505806 31.12710046 -74.31289809 28.79647358 -72.98242188 26.46484375 C-71.05935746 23.09660962 -69.12402794 19.73551284 -67.1875 16.375 C-66.60669678 15.35519043 -66.02589355 14.33538086 -65.42749023 13.28466797 C-64.88809814 12.35283691 -64.34870605 11.42100586 -63.79296875 10.4609375 C-63.3239917 9.64415527 -62.85501465 8.82737305 -62.37182617 7.98583984 C-60.32974221 5.02974251 -58.46161038 4.0960693 -54.98046875 3.37158203 C-43.29515786 1.86578952 -31.7690158 1.7680823 -20 1.875 C-18.04948382 1.8850609 -16.09896255 1.89418119 -14.1484375 1.90234375 C-9.43216291 1.92408551 -4.71613986 1.95843966 0 2 C0 1.34 0 0.68 0 0 Z " fill="#020000" transform="translate(519,156)"/>
<path d="M0 0 C21.78 0 43.56 0 66 0 C66 1.32 66 2.64 66 4 C66.99 4.33 67.98 4.66 69 5 C45.9 5 22.8 5 -1 5 C-0.67 3.35 -0.34 1.7 0 0 Z " fill="#DDDE3B" transform="translate(485,115)"/>
<path d="M0 0 C21.78 0 43.56 0 66 0 C66 1.32 66 2.64 66 4 C66.99 4.33 67.98 4.66 69 5 C67.35 4.67 65.7 4.34 64 4 C64 3.34 64 2.68 64 2 C42.88 2 21.76 2 0 2 C0 1.34 0 0.68 0 0 Z " fill="#F4F3DD" transform="translate(485,115)"/>
<path d="M0 0 C0 0.66 0 1.32 0 2 C-1.76706299 2.029729 -1.76706299 2.029729 -3.56982422 2.06005859 C-8.03191955 2.13738619 -12.49374114 2.22588127 -16.95556641 2.31738281 C-18.86957308 2.35515715 -20.78363842 2.39008896 -22.69775391 2.421875 C-35.24467901 2.632637 -47.55533555 3.36340451 -60 5 C-59.34 3.68 -58.68 2.36 -58 1 C-52.63305284 0.85450814 -47.26603161 0.71227019 -41.89892578 0.57275391 C-40.08184614 0.52509595 -38.26478763 0.47662381 -36.44775391 0.42724609 C-24.29512687 0.09770612 -12.15710081 -0.06688914 0 0 Z " fill="#6D6C18" transform="translate(519,156)"/>
</svg>
