<?xml version="1.0" encoding="UTF-8"?>
<svg version="1.1" xmlns="http://www.w3.org/2000/svg" width="592" height="600">
<path d="M0 0 C0.8204417 -0.00345082 1.64088341 -0.00690165 2.48618698 -0.01045704 C5.21474959 -0.01914105 7.94306496 -0.01324517 10.67163086 -0.00683594 C12.62513814 -0.00899795 14.57864479 -0.01181632 16.53215027 -0.01524353 C21.80440321 -0.02097596 27.07653399 -0.01221423 32.34877014 0.00104141 C35.63546822 0.00878669 38.92215749 0.01336847 42.2088623 0.0171814 C73.15679333 0.05883935 104.09774819 0.34809409 135.03873825 1.01283264 C137.80963292 1.07098806 140.58058418 1.12447364 143.35159302 1.17687988 C147.70758458 1.26056617 152.06299626 1.35912917 156.41839027 1.46954155 C157.99555933 1.50782987 159.57283679 1.54195163 161.15019798 1.57127571 C176.76670565 1.8708732 192.90849277 3.37466434 204.91772461 14.47753906 C214.28558801 24.55241102 218.9686788 36.58885673 218.78491211 50.29785156 C218.29204133 57.21629691 216.28197073 63.25988182 212.91772461 69.30175781 C212.38518066 70.25937012 211.85263672 71.21698242 211.30395508 72.20361328 C208.29900643 77.51040517 205.25836655 82.79571874 202.19897461 88.07128906 C196.96141584 97.11748756 191.76026123 106.18278748 186.57397461 115.25878906 C207.69397461 115.25878906 228.81397461 115.25878906 250.57397461 115.25878906 C250.57397461 116.57878906 250.57397461 117.89878906 250.57397461 119.25878906 C251.22881836 119.33355469 251.88366211 119.40832031 252.55834961 119.48535156 C264.97563819 121.27428297 274.6253106 126.51221295 282.57397461 136.25878906 C291.03051714 147.7196296 293.22607506 160.23029394 291.12866211 174.23144531 C288.13754314 186.18017848 280.76008589 196.76165301 274.57397461 207.25878906 C273.43869075 209.2034194 272.30455995 211.1487234 271.17163086 213.09472656 C269.4585702 216.03576387 267.74412053 218.97592881 266.02441406 221.91308594 C261.42600279 229.76962977 256.89558867 237.66332254 252.38647461 245.57128906 C245.05673552 258.42298018 237.67514999 271.24263715 230.21069336 284.01660156 C229.01923462 286.05563339 227.8278292 288.09469638 226.63647461 290.13378906 C226.04205566 291.15118164 225.44763672 292.16857422 224.83520508 293.21679688 C220.54707273 300.56620853 216.31409045 307.94549038 212.10449219 315.34008789 C208.38761914 321.85944773 204.6147523 328.34466888 200.82397461 334.82128906 C195.68534146 343.60264216 190.61085093 352.41885033 185.57397461 361.25878906 C180.06134908 370.93360859 174.48972887 380.57161056 168.86303711 390.18066406 C164.38231315 397.84452676 159.96890709 405.54557742 155.57397461 413.25878906 C150.06133626 422.93360125 144.48972894 432.57161043 138.86303711 442.18066406 C134.38231315 449.84452676 129.96890709 457.54557742 125.57397461 465.25878906 C120.06133626 474.93360125 114.48972894 484.57161043 108.86303711 494.18066406 C104.03647601 502.43604911 99.29009468 510.73593447 94.55648804 519.04476929 C89.3158668 528.2413434 84.0051076 537.39487673 78.65429688 546.52783203 C74.70818239 553.27733553 70.8425767 560.06845401 67.01147461 566.88378906 C64.8706239 570.67829182 62.72424315 574.4696157 60.57397461 578.25878906 C59.98600098 579.29600098 59.39802734 580.33321289 58.79223633 581.40185547 C57.02378475 584.50746377 55.23892203 587.60303068 53.44897461 590.69628906 C52.90426514 591.65680176 52.35955566 592.61731445 51.79833984 593.60693359 C51.28859619 594.48075684 50.77885254 595.35458008 50.25366211 596.25488281 C49.80748535 597.03017334 49.36130859 597.80546387 48.90161133 598.60424805 C48.46349121 599.15024658 48.02537109 599.69624512 47.57397461 600.25878906 C46.58397461 600.25878906 45.59397461 600.25878906 44.57397461 600.25878906 C43.32226562 598.72436523 43.32226562 598.72436523 42.07788086 596.55175781 C41.60833984 595.74786621 41.13879883 594.94397461 40.6550293 594.11572266 C40.15390625 593.23480957 39.6527832 592.35389648 39.13647461 591.44628906 C38.0511907 589.58707318 36.96390359 587.72902537 35.87475586 585.87207031 C35.32255371 584.9267041 34.77035156 583.98133789 34.20141602 583.00732422 C31.8258689 578.99533661 29.33402949 575.06253346 26.82397461 571.13378906 C22.06535102 563.65595199 17.39728797 556.12584479 12.76147461 548.57128906 C7.50497221 540.00729631 2.21877476 531.4633015 -3.11352539 522.94628906 C-3.72607178 521.96611816 -4.33861816 520.98594727 -4.96972656 519.97607422 C-7.99495132 515.13619755 -11.02923864 510.30239271 -14.07836914 505.47753906 C-15.23608832 503.63389398 -16.39364752 501.79014842 -17.55102539 499.94628906 C-18.33159302 498.72075317 -18.33159302 498.72075317 -19.12792969 497.47045898 C-33.12779006 475.08944957 -37.35874097 450.21096028 -31.94311523 424.49609375 C-28.30494439 408.7547351 -19.48320907 395.06176499 -11.42602539 381.25878906 C-10.97179199 380.47890625 -10.51755859 379.69902344 -10.04956055 378.89550781 C-8.08020025 375.52169709 -6.0952923 372.15745178 -4.10180664 368.79785156 C-0.74457074 363.12550294 2.53558086 357.40872024 5.82397461 351.69628906 C10.71542785 343.20222607 15.62784762 334.72113336 20.57397461 326.25878906 C27.32116954 314.7116018 34.00736859 303.12976738 40.68286133 291.54101562 C43.81077609 286.11218964 46.94255909 280.68559625 50.07397461 275.25878906 C51.3239934 273.09213324 52.57399339 270.92546657 53.82397461 268.75878906 C56.32397461 264.42545573 58.82397461 260.0921224 61.32397461 255.75878906 C61.94280518 254.68612793 62.56163574 253.6134668 63.19921875 252.50830078 C64.44832979 250.34321836 65.6975159 248.17817924 66.94677734 246.01318359 C70.0859977 240.572632 73.22388024 235.13131691 76.35913086 229.68847656 C82.96653817 218.22107545 89.59869537 206.76900385 96.27832031 195.34350586 C99.43934388 189.93224689 102.58619243 184.51316855 105.71459961 179.08300781 C106.05898071 178.48529572 106.40336182 177.88758362 106.75817871 177.27175903 C108.43289093 174.36413257 110.10586135 171.45552425 111.77709961 168.54589844 C112.37522461 167.50626953 112.97334961 166.46664062 113.58959961 165.39550781 C114.1184375 164.47471436 114.64727539 163.5539209 115.19213867 162.60522461 C116.26222272 160.7881614 117.40425425 159.0133696 118.57397461 157.25878906 C112.40334646 157.18393541 106.23298989 157.12985802 100.06201172 157.09399414 C97.96821481 157.0790235 95.87444861 157.05863973 93.78076172 157.0324707 C71.64419736 156.69615579 71.64419736 156.69615579 51.57397461 165.25878906 C50.70772461 165.81566406 49.84147461 166.37253906 48.94897461 166.94628906 C42.62080251 173.10793031 38.22670379 181.28826321 33.82397461 188.88378906 C32.69558739 190.81117636 31.56664552 192.738239 30.43725586 194.66503906 C29.52000732 196.23318359 29.52000732 196.23318359 28.58422852 197.83300781 C24.75146603 204.36462345 20.8794536 210.87298881 17.01147461 217.38378906 C16.17911315 218.78564175 15.34675637 220.18749721 14.5144043 221.58935547 C9.77013617 229.57723185 5.00700441 237.55333813 0.21704102 245.51391602 C-5.39172606 254.84602812 -10.93864542 264.21500271 -16.49047852 273.58105469 C-20.29278201 279.99378711 -24.10519324 286.40001378 -27.94555664 292.79003906 C-30.93453334 297.76353589 -33.90775394 302.74595309 -36.86352539 307.73925781 C-37.23226776 308.36213684 -37.60101013 308.98501587 -37.98092651 309.62677002 C-38.73861035 310.90676066 -39.49628025 312.18675955 -40.25393677 313.46676636 C-47.62616353 325.91760837 -55.06473411 338.325113 -62.61206055 350.6706543 C-65.66641417 355.67528602 -68.6959048 360.68576233 -71.60180664 365.77832031 C-72.06643311 366.58986572 -72.53105957 367.40141113 -73.00976562 368.23754883 C-73.84106446 369.69974831 -74.66298386 371.16734088 -75.47314453 372.64135742 C-76.54321289 374.52441406 -76.54321289 374.52441406 -78.42602539 377.25878906 C-79.41602539 377.25878906 -80.40602539 377.25878906 -81.42602539 377.25878906 C-81.95067383 376.28425781 -82.47532227 375.30972656 -83.01586914 374.30566406 C-88.58370852 364.07591788 -94.50803645 354.0898984 -100.58395386 344.15515137 C-106.13224337 335.08010735 -111.57193126 325.94967163 -116.92602539 316.75878906 C-122.53453861 307.13343109 -128.24127432 297.57650034 -134.05102539 288.07128906 C-140.23087447 277.95903367 -146.22910321 267.75371905 -152.12280273 257.47143555 C-156.20488089 250.35517526 -160.36408875 243.29340481 -164.6027832 236.26953125 C-169.26772159 228.53740351 -173.8811409 220.77529198 -178.48852539 213.00878906 C-179.30720618 211.62906658 -180.12589111 210.24934654 -180.94458008 208.86962891 C-182.60930602 206.06390596 -184.27381796 203.25805617 -185.93823242 200.45214844 C-189.53881942 194.38256239 -193.14226373 188.31467311 -196.74557495 182.2467041 C-198.72251661 178.91747322 -200.69926071 175.58812503 -202.67602539 172.25878906 C-203.46769112 170.92545517 -204.25935778 169.59212184 -205.05102539 168.25878906 C-206.63435872 165.5921224 -208.21769206 162.92545573 -209.80102539 160.25878906 C-210.19289032 159.5988092 -210.58475525 158.93882935 -210.98849487 158.2588501 C-211.78027455 156.92532001 -212.57204294 155.59178323 -213.36380005 154.25823975 C-215.34114531 150.92786173 -217.31868558 147.59759982 -219.29663086 144.26757812 C-222.88105719 138.23248516 -226.46399587 132.19653262 -230.03974915 126.15629578 C-232.04255082 122.77322625 -234.04651827 119.39084833 -236.05102539 116.00878906 C-236.44379669 115.34599945 -236.83656799 114.68320984 -237.24124146 114.00033569 C-243.23352294 103.89396432 -249.31385712 93.84413456 -255.43521118 83.81555176 C-260.49407751 75.5207788 -265.40114616 67.1561954 -270.18603516 58.70092773 C-273.48294702 52.88228256 -276.85669981 47.11640199 -280.30102539 41.38378906 C-280.7825708 40.58062256 -281.26411621 39.77745605 -281.76025391 38.94995117 C-284.56239873 34.29536166 -287.41085452 29.67275096 -290.29321289 25.06738281 C-290.93919434 24.02759277 -291.58517578 22.98780273 -292.25073242 21.91650391 C-293.51042407 19.89134912 -294.77929275 17.87186673 -296.05834961 15.85888672 C-296.91323975 14.48095947 -296.91323975 14.48095947 -297.78540039 13.07519531 C-298.55062012 11.86005249 -298.55062012 11.86005249 -299.33129883 10.62036133 C-300.56944985 7.94939014 -300.51054947 6.16486042 -300.42602539 3.25878906 C-281.11026926 3.18851997 -261.79453928 3.13571355 -242.47868156 3.10335255 C-233.50877468 3.08792336 -224.5389475 3.0669099 -215.5690918 3.0324707 C-207.74546315 3.00244685 -199.92189226 2.98318541 -192.09820759 2.97652358 C-187.96061046 2.97263318 -183.82317849 2.96357387 -179.68563461 2.94159889 C-175.7802789 2.92102784 -171.87515421 2.91499624 -167.96974945 2.91946602 C-166.54689141 2.91864993 -165.12402453 2.91280823 -163.70121384 2.90117264 C-144.57204873 2.75259188 -127.47065653 6.70767351 -113.42602539 20.25878906 C-107.90760122 26.0070098 -103.57094606 32.3018366 -99.30102539 39.00878906 C-97.99503984 41.03613541 -96.68905017 43.0634791 -95.38305664 45.09082031 C-94.72901855 46.11127441 -94.07498047 47.13172852 -93.40112305 48.18310547 C-90.28538992 53.03502215 -87.13552501 57.86462083 -83.98852539 62.69628906 C-82.90623924 64.36148801 -81.82418216 66.02683586 -80.74243164 67.69238281 C-80.06869507 68.72963501 -80.06869507 68.72963501 -79.38134766 69.7878418 C-79.06609131 70.27325439 -78.75083496 70.75866699 -78.42602539 71.25878906 C-74.05965788 65.15702108 -69.87155419 58.94960463 -65.73852539 52.68847656 C-65.22878174 51.91755676 -64.71903809 51.14663696 -64.19384766 50.35235596 C-62.06699169 47.13507768 -59.94073523 43.9174591 -57.82348633 40.69384766 C-56.25892271 38.31342791 -54.68683539 35.93812169 -53.11352539 33.56347656 C-52.4132019 32.49128372 -52.4132019 32.49128372 -51.69873047 31.39743042 C-40.25203177 14.18226702 -21.42002027 -0.11483256 0 0 Z " fill="#FAE713" transform="translate(300.426025390625,-0.2587890625)"/>
<path d="M0 0 C1.95515362 0.01341904 3.91031368 0.02592623 5.86547852 0.03759766 C12.1815377 0.0826289 18.49688524 0.16401592 24.8125 0.25 C25.83915771 0.26309204 26.86581543 0.27618408 27.92358398 0.28967285 C41.17756094 0.45900418 54.42884318 0.70319368 67.68055725 0.99995422 C75.88773772 1.17953703 84.09472632 1.31810917 92.30305576 1.43358231 C99.37909338 1.53434312 106.45456163 1.65731078 113.52999783 1.79381943 C117.91006732 1.87741058 122.28977359 1.95062581 126.67037964 1.99945068 C130.81011798 2.04597465 134.94844051 2.12045891 139.08733559 2.21568871 C140.62400866 2.24608898 142.16092144 2.26628771 143.69786644 2.27569008 C155.3920134 2.35579422 155.3920134 2.35579422 158.86219788 4.54029846 C161.11148411 7.07528939 161.7954101 9.01798295 162.04296875 12.37890625 C160.69074532 18.12232214 157.12298919 23.18924709 154.125 28.1875 C153.44664607 29.33699343 152.76941706 30.48715139 152.09326172 31.63793945 C150.69840232 34.0086947 149.29761497 36.37578767 147.89208984 38.74023438 C145.30004598 43.10600369 142.7546924 47.49864514 140.20654297 51.89013672 C135.34448603 60.26554311 130.45292174 68.62144038 125.38720703 76.87573242 C123.89289206 79.33088682 122.72637888 81.50836335 121.8125 84.25 C120.86053238 84.25142502 119.90856476 84.25285004 118.92774963 84.25431824 C109.8823885 84.27110975 100.83747026 84.31424911 91.79234409 84.38209057 C87.14396997 84.41613774 82.49591673 84.44143544 77.84741211 84.44555664 C73.34722279 84.44988799 68.84775458 84.47874336 64.34779167 84.52343178 C62.64536708 84.53625433 60.94285549 84.54076973 59.24038887 84.53615379 C36.99268191 84.48995556 18.4528577 91.04160187 1.8125 106.25 C1.28479004 106.71067871 0.75708008 107.17135742 0.21337891 107.64599609 C-5.4780303 112.90022278 -9.16046847 119.25120891 -13.0625 125.875 C-13.80454632 127.11701012 -14.54740239 128.35853676 -15.29101562 129.59960938 C-21.19579821 139.47878307 -26.99669459 149.42066055 -32.79467773 159.36279297 C-38.51921838 169.16908871 -44.3927643 178.88005073 -50.3046875 188.57421875 C-54.36982182 195.24210114 -58.38258666 201.93506095 -62.31347656 208.68286133 C-66.59853622 216.00895979 -71.04271867 223.23897038 -75.47076416 230.47915649 C-79.57817054 237.19991991 -83.62177412 243.94752152 -87.51171875 250.796875 C-87.85609482 251.40189346 -88.20047089 252.00691193 -88.55528259 252.63026428 C-90.20143721 255.52632201 -91.83518963 258.42800341 -93.45385742 261.33959961 C-94.32361206 262.87886108 -94.32361206 262.87886108 -95.2109375 264.44921875 C-95.71544434 265.35502686 -96.21995117 266.26083496 -96.73974609 267.1940918 C-98.1875 269.25 -98.1875 269.25 -101.1875 270.25 C-101.76528198 269.27450195 -101.76528198 269.27450195 -102.35473633 268.27929688 C-112.81323951 250.62299997 -123.28532298 232.97480149 -133.76416016 215.33056641 C-137.34425978 209.30231704 -140.92361586 203.2736262 -144.50302124 197.2449646 C-146.48114972 193.91329127 -148.45932737 190.58164712 -150.4375 187.25 C-151.2291669 185.91666681 -152.02083357 184.58333347 -152.8125 183.25 C-153.204375 182.59 -153.59625 181.93 -154 181.25 C-167.85416667 157.91666667 -181.70833333 134.58333333 -195.5625 111.25 C-196.15025963 110.26009064 -196.15025963 110.26009064 -196.74989319 109.25018311 C-197.54191965 107.91624165 -198.33394236 106.58229797 -199.1259613 105.24835205 C-201.09959227 101.92430465 -203.07328766 98.60029553 -205.04711914 95.27636719 C-208.67574266 89.1656232 -212.30379248 83.05454121 -215.92959595 76.94212341 C-226.65175345 58.85836264 -226.65175345 58.85836264 -237.4375 40.8125 C-237.88955811 40.05888184 -238.34161621 39.30526367 -238.80737305 38.52880859 C-241.2581544 34.44749678 -243.71851378 30.37216572 -246.18804932 26.3021698 C-247.59471038 23.98227856 -248.99792921 21.66031508 -250.40075684 19.33810425 C-251.41923619 17.65517894 -252.44248616 15.97514369 -253.46582031 14.29516602 C-254.08038086 13.27737061 -254.69494141 12.2595752 -255.328125 11.2109375 C-255.88016602 10.30134277 -256.43220703 9.39174805 -257.00097656 8.45458984 C-258.1875 6.25 -258.1875 6.25 -258.1875 4.25 C-247.12996975 4.18033723 -236.07249214 4.12710618 -225.01478672 4.09456348 C-219.87965172 4.07894071 -214.74466743 4.0577645 -209.60961914 4.02368164 C-204.64941372 3.99096715 -199.6893528 3.97312152 -194.72904778 3.96536827 C-192.84131535 3.95984642 -190.9535904 3.94906375 -189.06591988 3.93280983 C-186.41169574 3.91087464 -183.75806067 3.90803975 -181.10375977 3.90942383 C-180.33195374 3.898638 -179.56014771 3.88785217 -178.76495361 3.8767395 C-171.76631741 3.91595519 -165.0754943 5.2684866 -159.734375 10.0234375 C-154.55714876 15.71481996 -150.57873297 22.41798834 -146.4375 28.875 C-145.51097072 30.30542037 -144.58354678 31.73526161 -143.65527344 33.16455078 C-141.75333369 36.09487492 -139.85554975 39.02782394 -137.9609375 41.96289062 C-134.2059637 47.77474983 -130.40737303 53.55782756 -126.6086731 59.34115601 C-124.67286469 62.28963579 -122.74070078 65.24050018 -120.80859375 68.19140625 C-120.2427079 69.05557915 -120.2427079 69.05557915 -119.66539001 69.93721008 C-112.83368454 80.37104951 -106.01017862 90.81025654 -99.1875 101.25 C-96.38122225 97.82567993 -93.82291145 94.32615988 -91.37109375 90.640625 C-91.00611282 90.09310577 -90.6411319 89.54558655 -90.26509094 88.98147583 C-89.04930373 87.15591667 -87.83707958 85.32802256 -86.625 83.5 C-85.75888678 82.19736341 -84.89267313 80.89479359 -84.02636719 79.59228516 C-75.13447818 66.21110137 -66.30448071 52.78881774 -57.47827148 39.36425781 C-34.4401126 4.32456859 -34.4401126 4.32456859 -22.47485352 0.87182617 C-15.0837276 -0.52625758 -7.49253271 -0.09144743 0 0 Z " fill="#060302" transform="translate(321.1875,35.75)"/>
<path d="M0 0 C4.30491463 -0.12418758 8.6088635 -0.21461002 12.91503906 -0.2746582 C14.37778907 -0.29970529 15.84041512 -0.33375392 17.30273438 -0.37719727 C19.41307219 -0.43829356 21.52174752 -0.46630435 23.6328125 -0.48828125 C25.53377686 -0.52755737 25.53377686 -0.52755737 27.47314453 -0.56762695 C32.14342724 0.18402799 33.71541027 1.65057468 37 5 C38.16390241 9.26764216 36.62271596 12.03429563 34.6484375 15.7734375 C33.57054403 17.64830658 32.47841574 19.51503707 31.375 21.375 C30.49581909 22.89250854 30.49581909 22.89250854 29.59887695 24.44067383 C27.7448829 27.63447117 25.87342781 30.81757141 24 34 C22.85961061 35.953805 21.72026038 37.90821696 20.58203125 39.86328125 C18.87235111 42.79832266 17.16118766 45.73243519 15.44482422 48.66357422 C10.90942122 56.41202172 6.44435902 64.19917122 2 72 C-3.53968899 81.72134099 -9.13375063 91.40895092 -14.78344727 101.06689453 C-20.93932133 111.59367451 -27.02663887 122.15964934 -33.11328125 132.7265625 C-34.9796838 135.9647516 -36.84873763 139.20139438 -38.71875 142.4375 C-45.53821105 154.24117161 -52.32467146 166.06279326 -59.07736206 177.90472412 C-64.23335445 186.94329428 -69.45320673 195.94277138 -74.71118164 204.92236328 C-79.19189393 212.58602252 -83.60515756 220.28694638 -88 228 C-93.51263835 237.67481219 -99.08424567 247.31282137 -104.7109375 256.921875 C-109.19166146 264.5857377 -113.60506752 272.28678835 -118 280 C-123.51263835 289.67481219 -129.08424567 299.31282137 -134.7109375 308.921875 C-139.53377455 317.17089041 -144.2770794 325.46406055 -149.00640869 333.7668457 C-154.49255144 343.39625447 -160.04691576 352.98304258 -165.66015625 362.5390625 C-166.20285156 363.46460938 -166.74554688 364.39015625 -167.3046875 365.34375 C-167.77890137 366.15005859 -168.25311523 366.95636719 -168.74169922 367.78710938 C-169.90220038 369.82800625 -170.9730065 371.88932633 -172 374 C-172.66 374 -173.32 374 -174 374 C-175.45776367 371.99414062 -175.45776367 371.99414062 -177.16796875 369.15625 C-177.80686035 368.10566406 -178.44575195 367.05507813 -179.10400391 365.97265625 C-179.7985326 364.81512216 -180.49303055 363.65756963 -181.1875 362.5 C-182.26599701 360.72043978 -183.34709712 358.94247793 -184.42828369 357.16455078 C-185.1714304 355.94207752 -185.91372861 354.71908808 -186.6552124 353.49560547 C-191.01037671 346.31442659 -195.48156273 339.20686685 -199.94995117 332.09570312 C-201.63975581 329.40109229 -203.32188364 326.70190287 -205 324 C-205.54769043 323.12432373 -206.09538086 322.24864746 -206.65966797 321.34643555 C-215.2670037 307.35720261 -217.98732172 294.13575477 -215.125 277.75 C-211.57391874 264.1458577 -202.95935047 251.72222853 -195.8125 239.7421875 C-192.42159335 234.04890438 -189.11918487 228.30497507 -185.8125 222.5625 C-185.17481689 221.45575928 -184.53713379 220.34901855 -183.88012695 219.20874023 C-182.57172278 216.93762519 -181.26353774 214.66638388 -179.95556641 212.39501953 C-176.80667946 206.9283002 -173.65316736 201.46425113 -170.5 196 C-169.2499765 193.83334689 -167.99997653 191.66668021 -166.75 189.5 C-144.25 150.5 -144.25 150.5 -142.37524414 147.25048828 C-141.1243552 145.08223736 -139.87354148 142.91394303 -138.62280273 140.74560547 C-135.51201665 135.35282085 -132.39995762 129.96077907 -129.28515625 124.5703125 C-122.46497363 112.76370516 -115.6767674 100.93973 -108.92263794 89.09527588 C-103.76826902 80.0595517 -98.5512615 71.06218777 -93.29321289 62.08642578 C-89.46355131 55.53850222 -85.68562131 48.96248971 -81.93579102 42.36865234 C-80.57436572 39.97529253 -79.20776655 37.58502527 -77.83569336 35.19775391 C-77.50342239 34.61951874 -77.17115143 34.04128357 -76.82881165 33.44552612 C-76.49987411 32.87311188 -76.17093658 32.30069763 -75.83203125 31.7109375 C-73.38519777 27.44926243 -70.98928901 23.16589661 -68.63671875 18.8515625 C-67.61262116 17.02568144 -66.58792227 15.20013744 -65.5625 13.375 C-65.12728027 12.54581055 -64.69206055 11.71662109 -64.24365234 10.86230469 C-62.55443821 7.90950517 -61.22674766 5.59737828 -58.10888672 4.07910156 C-55.72385916 3.47836358 -53.45119016 3.20507322 -51 3 C-50.08460449 2.89421631 -49.16920898 2.78843262 -48.22607422 2.67944336 C-38.24164403 1.69570448 -28.20764108 1.88756418 -18.1875 1.9375 C-16.4160169 1.94252848 -14.64453241 1.94708898 -12.87304688 1.95117188 C-8.58199613 1.9620628 -4.29101394 1.97925196 0 2 C0 1.34 0 0.68 0 0 Z " fill="#050202" transform="translate(519,156)"/>
<path d="M0 0 C21.78 0 43.56 0 66 0 C66 1.32 66 2.64 66 4 C66.99 4.33 67.98 4.66 69 5 C45.90142997 5.2446683 23.02972474 4.88529861 0 3 C0 2.01 0 1.02 0 0 Z " fill="#FFEF84" transform="translate(485,115)"/>
<path d="M0 0 C1.50890556 0.01665459 1.50890556 0.01665459 3.04829407 0.03364563 C4.18925034 0.03402328 5.3302066 0.03440094 6.5057373 0.03479004 C7.73705887 0.06059647 8.96838043 0.08640289 10.23701477 0.11299133 C12.12840935 0.12360344 12.12840935 0.12360344 14.05801392 0.13442993 C17.40750994 0.15769869 20.75530271 0.20260152 24.10432434 0.25794983 C27.52275377 0.30913606 30.94135929 0.33194241 34.36006165 0.35713196 C41.06561121 0.41232135 47.77035527 0.49604033 54.47529602 0.60127258 C54.47529602 1.26127258 54.47529602 1.92127258 54.47529602 2.60127258 C53.43937317 2.62109192 52.40345032 2.64091125 51.33613586 2.66133118 C32.31899717 3.03703075 13.38913618 3.41236749 -5.52470398 5.60127258 C-3.2712569 0.7790684 -3.2712569 0.7790684 0 0 Z " fill="#A28E28" transform="translate(464.5247039794922,155.3987274169922)"/>
<path d="M0 0 C21.78 0 43.56 0 66 0 C66 1.32 66 2.64 66 4 C66.99 4.33 67.98 4.66 69 5 C67.35 5 65.7 5 64 5 C64 4.01 64 3.02 64 2 C42.88 2 21.76 2 0 2 C0 1.34 0 0.68 0 0 Z " fill="#FFFAF0" transform="translate(485,115)"/>
</svg>
